<svg width="25" height="25" viewBox="0 0 25 25" fill="none" xmlns="http://www.w3.org/2000/svg">
<path d="M5.48828 10.1563C5.48697 9.23006 5.66893 8.31276 6.02365 7.45719C6.37838 6.60162 6.89887 5.82468 7.55515 5.17113C8.21142 4.51757 8.99052 4.00032 9.84756 3.64915C10.7046 3.29798 11.6226 3.11985 12.5488 3.125C16.416 3.1543 19.5117 6.36719 19.5117 10.2441V10.9375C19.5117 14.4336 20.2441 16.4648 20.8887 17.5781C20.9571 17.6967 20.9932 17.8312 20.9933 17.9681C20.9935 18.105 20.9576 18.2395 20.8894 18.3582C20.8211 18.4769 20.7229 18.5755 20.6045 18.6443C20.4861 18.7131 20.3517 18.7495 20.2148 18.75H4.78515C4.64825 18.7495 4.51387 18.7131 4.39549 18.6443C4.27711 18.5755 4.17888 18.4769 4.11063 18.3582C4.04239 18.2395 4.00653 18.105 4.00665 17.9681C4.00677 17.8312 4.04287 17.6967 4.11132 17.5781C4.75585 16.4648 5.48828 14.4336 5.48828 10.9375V10.1563Z" stroke="#1D1D1D" stroke-width="2" stroke-linecap="round" stroke-linejoin="round"/>
<path d="M9.375 18.75V19.5312C9.375 20.3601 9.70424 21.1549 10.2903 21.741C10.8763 22.327 11.6712 22.6562 12.5 22.6562C13.3288 22.6562 14.1237 22.327 14.7097 21.741C15.2958 21.1549 15.625 20.3601 15.625 19.5312V18.75" stroke="#1D1D1D" stroke-width="2" stroke-linecap="round" stroke-linejoin="round"/>
</svg>
