<svg width="30" height="30" viewBox="0 0 30 30" fill="none" xmlns="http://www.w3.org/2000/svg">
<path d="M9.375 28.125C10.4105 28.125 11.25 27.2855 11.25 26.25C11.25 25.2145 10.4105 24.375 9.375 24.375C8.33947 24.375 7.5 25.2145 7.5 26.25C7.5 27.2855 8.33947 28.125 9.375 28.125Z" fill="white"/>
<path d="M22.5 28.125C23.5355 28.125 24.375 27.2855 24.375 26.25C24.375 25.2145 23.5355 24.375 22.5 24.375C21.4645 24.375 20.625 25.2145 20.625 26.25C20.625 27.2855 21.4645 28.125 22.5 28.125Z" fill="white"/>
<path d="M4.66875 2.62875C4.62629 2.4163 4.51155 2.22512 4.34406 2.08771C4.17657 1.95029 3.96665 1.87513 3.75 1.875H0V3.75H2.98125L6.58125 21.7462C6.62371 21.9587 6.73845 22.1499 6.90594 22.2873C7.07343 22.4247 7.28335 22.4999 7.5 22.5H24.375V20.625H8.26875L7.51875 16.875H24.375C24.5883 16.875 24.7951 16.8022 24.9615 16.6688C25.1278 16.5353 25.2437 16.3491 25.29 16.1409L27.4162 6.5625H25.4972L23.6231 15H7.14375L4.66875 2.62875Z" fill="white"/>
<path d="M16.875 5.625V1.875H15V5.625H11.25V7.5H15V11.25H16.875V7.5H20.625V5.625H16.875Z" fill="white"/>
</svg>
