<svg width="16" height="16" viewBox="0 0 16 16" fill="none" xmlns="http://www.w3.org/2000/svg">
<path fill-rule="evenodd" clip-rule="evenodd" d="M10.8833 9.93266L14.47 13.5193C14.5961 13.6455 14.6669 13.8165 14.6668 13.9949C14.6667 14.1732 14.5958 14.3443 14.4697 14.4703C14.3435 14.5964 14.1724 14.6672 13.9941 14.6671C13.8158 14.6671 13.6447 14.5961 13.5187 14.47L9.932 10.8833C8.85981 11.7138 7.51152 12.1046 6.16142 11.9762C4.81132 11.8479 3.56082 11.21 2.66432 10.1924C1.76782 9.17479 1.29266 7.85387 1.3355 6.49836C1.37835 5.14285 1.93597 3.85457 2.89494 2.8956C3.85391 1.93663 5.14219 1.379 6.4977 1.33616C7.85321 1.29332 9.17413 1.76848 10.1917 2.66498C11.2094 3.56148 11.8472 4.81198 11.9756 6.16208C12.1039 7.51218 11.7131 8.86047 10.8827 9.93266H10.8833ZM6.66667 10.6667C7.72754 10.6667 8.74495 10.2452 9.4951 9.49509C10.2452 8.74494 10.6667 7.72753 10.6667 6.66666C10.6667 5.60579 10.2452 4.58838 9.4951 3.83823C8.74495 3.08809 7.72754 2.66666 6.66667 2.66666C5.6058 2.66666 4.58839 3.08809 3.83824 3.83823C3.0881 4.58838 2.66667 5.60579 2.66667 6.66666C2.66667 7.72753 3.0881 8.74494 3.83824 9.49509C4.58839 10.2452 5.6058 10.6667 6.66667 10.6667V10.6667Z" fill="black"/>
</svg>
