<svg width="67" height="67" viewBox="0 0 67 67" fill="none" xmlns="http://www.w3.org/2000/svg">
<path opacity="0.2" d="M54.4375 23.0312H39.7812V8.375L54.4375 23.0312Z" fill="black"/>
<path d="M55.9188 21.5499L41.2626 6.89367C41.068 6.6993 40.837 6.54517 40.5828 6.44009C40.3287 6.33501 40.0563 6.28103 39.7812 6.28125H14.6562C13.5457 6.28125 12.4805 6.72243 11.6952 7.50774C10.9099 8.29305 10.4688 9.35816 10.4688 10.4688V56.5312C10.4688 57.6418 10.9099 58.707 11.6952 59.4923C12.4805 60.2776 13.5457 60.7188 14.6562 60.7188H52.3438C53.4543 60.7188 54.5195 60.2776 55.3048 59.4923C56.0901 58.707 56.5312 57.6418 56.5312 56.5312V23.0312C56.5315 22.7562 56.4775 22.4838 56.3724 22.2297C56.2673 21.9755 56.1132 21.7445 55.9188 21.5499ZM41.875 13.4288L49.3837 20.9375H41.875V13.4288ZM52.3438 56.5312H14.6562V10.4688H37.6875V23.0312C37.6875 23.5865 37.9081 24.1191 38.3007 24.5118C38.6934 24.9044 39.226 25.125 39.7812 25.125H52.3438V56.5312ZM43.9688 35.5938C43.9688 36.149 43.7482 36.6816 43.3555 37.0743C42.9629 37.4669 42.4303 37.6875 41.875 37.6875H25.125C24.5697 37.6875 24.0371 37.4669 23.6445 37.0743C23.2518 36.6816 23.0312 36.149 23.0312 35.5938C23.0312 35.0385 23.2518 34.5059 23.6445 34.1132C24.0371 33.7206 24.5697 33.5 25.125 33.5H41.875C42.4303 33.5 42.9629 33.7206 43.3555 34.1132C43.7482 34.5059 43.9688 35.0385 43.9688 35.5938ZM43.9688 43.9688C43.9688 44.524 43.7482 45.0566 43.3555 45.4493C42.9629 45.8419 42.4303 46.0625 41.875 46.0625H25.125C24.5697 46.0625 24.0371 45.8419 23.6445 45.4493C23.2518 45.0566 23.0312 44.524 23.0312 43.9688C23.0312 43.4135 23.2518 42.8809 23.6445 42.4882C24.0371 42.0956 24.5697 41.875 25.125 41.875H41.875C42.4303 41.875 42.9629 42.0956 43.3555 42.4882C43.7482 42.8809 43.9688 43.4135 43.9688 43.9688Z" fill="black"/>
</svg>
