<svg width="67" height="67" viewBox="0 0 67 67" fill="none" xmlns="http://www.w3.org/2000/svg">
<path d="M39.7812 54.4375C39.7812 56.1034 39.1195 57.7011 37.9415 58.879C36.7636 60.057 35.1659 60.7187 33.5 60.7188C31.8341 60.7187 30.2364 60.057 29.0585 58.879C27.8805 57.7011 27.2188 56.1034 27.2188 54.4375C27.2188 52.7716 27.8805 51.1739 29.0585 49.996C30.2364 48.818 31.8341 48.1563 33.5 48.1562C35.1659 48.1563 36.7636 48.818 37.9415 49.996C39.1195 51.1739 39.7812 52.7716 39.7812 54.4375ZM39.7812 33.5C39.7812 35.1659 39.1195 36.7636 37.9415 37.9415C36.7636 39.1195 35.1659 39.7812 33.5 39.7812C31.8341 39.7812 30.2364 39.1195 29.0585 37.9415C27.8805 36.7636 27.2188 35.1659 27.2188 33.5C27.2188 31.8341 27.8805 30.2364 29.0585 29.0585C30.2364 27.8805 31.8341 27.2188 33.5 27.2188C35.1659 27.2188 36.7636 27.8805 37.9415 29.0585C39.1195 30.2364 39.7812 31.8341 39.7812 33.5ZM39.7812 12.5625C39.7812 14.2284 39.1195 15.8261 37.9415 17.004C36.7636 18.182 35.1659 18.8438 33.5 18.8438C31.8341 18.8438 30.2364 18.182 29.0585 17.004C27.8805 15.8261 27.2188 14.2284 27.2188 12.5625C27.2188 10.8966 27.8805 9.29895 29.0585 8.12099C30.2364 6.94302 31.8341 6.28125 33.5 6.28125C35.1659 6.28125 36.7636 6.94302 37.9415 8.12099C39.1195 9.29895 39.7812 10.8966 39.7812 12.5625Z" fill="black"/>
</svg>
