<svg width="30" height="30" viewBox="0 0 30 30" fill="none" xmlns="http://www.w3.org/2000/svg">
<path d="M20.1563 14.0625C20.1563 15.0823 19.8538 16.0792 19.2873 16.9272C18.7207 17.7751 17.9154 18.436 16.9732 18.8263C16.031 19.2165 14.9943 19.3186 13.9941 19.1197C12.9939 18.9207 12.0751 18.4296 11.354 17.7085C10.6329 16.9874 10.1418 16.0686 9.94283 15.0684C9.74388 14.0682 9.84599 13.0315 10.2363 12.0893C10.6265 11.1471 11.2874 10.3418 12.1353 9.77523C12.9833 9.20866 13.9802 8.90625 15 8.90625C16.3675 8.90625 17.679 9.4495 18.646 10.4165C19.613 11.3835 20.1563 12.695 20.1563 14.0625ZM27.1875 15C27.1875 17.4105 26.4727 19.7668 25.1335 21.771C23.7944 23.7752 21.8909 25.3373 19.664 26.2598C17.437 27.1822 14.9865 27.4236 12.6223 26.9533C10.2582 26.4831 8.08659 25.3223 6.38214 23.6179C4.67769 21.9134 3.51694 19.7418 3.04668 17.3777C2.57643 15.0135 2.81778 12.563 3.74022 10.336C4.66267 8.10907 6.22477 6.20564 8.22899 4.86646C10.2332 3.52728 12.5895 2.8125 15 2.8125C18.2304 2.81869 21.3268 4.10472 23.611 6.38898C25.8953 8.67324 27.1813 11.7696 27.1875 15ZM25.3125 15C25.3131 13.3298 24.908 11.6844 24.1321 10.2053C23.3562 8.72629 22.2326 7.45784 20.858 6.50906C19.4834 5.56029 17.899 4.95959 16.2409 4.75862C14.5828 4.55764 12.9007 4.76241 11.3392 5.35532C9.77778 5.94822 8.38371 6.91152 7.27689 8.16236C6.17008 9.41321 5.38364 10.9142 4.98521 12.5362C4.58679 14.1582 4.5883 15.8527 4.98961 17.474C5.39092 19.0953 6.18003 20.5949 7.28907 21.8437C8.04795 20.7552 9.02587 19.8371 10.1602 19.1484C11.4625 20.3961 13.1964 21.0927 15 21.0927C16.8036 21.0927 18.5375 20.3961 19.8398 19.1484C20.9741 19.8371 21.9521 20.7552 22.7109 21.8437C24.3898 19.9598 25.3159 17.5235 25.3125 15Z" fill="white"/>
</svg>
