<svg width="27" height="27" viewBox="0 0 27 27" fill="none" xmlns="http://www.w3.org/2000/svg">
<path d="M13.375 25.75C20.2095 25.75 25.75 20.2095 25.75 13.375C25.75 6.54048 20.2095 1 13.375 1C6.54048 1 1 6.54048 1 13.375C1 20.2095 6.54048 25.75 13.375 25.75Z" stroke="#1D1D1D" stroke-width="2" stroke-linecap="round" stroke-linejoin="round"/>
<path d="M13.375 17.5C16.2227 17.5 18.5312 15.1915 18.5312 12.3438C18.5312 9.49603 16.2227 7.1875 13.375 7.1875C10.5273 7.1875 8.21875 9.49603 8.21875 12.3438C8.21875 15.1915 10.5273 17.5 13.375 17.5Z" stroke="#1D1D1D" stroke-width="2" stroke-linecap="round" stroke-linejoin="round"/>
<path d="M5.09924 22.5789C5.87514 21.0506 7.05908 19.7671 8.51982 18.8705C9.98057 17.9738 11.6611 17.4992 13.375 17.4992C15.089 17.4992 16.7695 17.9738 18.2302 18.8705C19.691 19.7671 20.8749 21.0506 21.6508 22.5789" stroke="#1D1D1D" stroke-width="2" stroke-linecap="round" stroke-linejoin="round"/>
</svg>
